<svg width="115" height="16" viewBox="0 0 115 16" fill="none" xmlns="http://www.w3.org/2000/svg">
<rect x="43" width="22" height="16" fill="#FFD848"/>
<path d="M5.904 13C5.528 13 5.244 12.904 5.052 12.712C4.868 12.52 4.756 12.268 4.716 11.956H4.656C4.536 12.332 4.316 12.624 3.996 12.832C3.684 13.04 3.284 13.144 2.796 13.144C2.164 13.144 1.66 12.98 1.284 12.652C0.908 12.316 0.72 11.856 0.72 11.272C0.72 10.672 0.94 10.216 1.38 9.904C1.828 9.584 2.512 9.424 3.432 9.424H4.62V8.944C4.62 8.104 4.176 7.684 3.288 7.684C2.888 7.684 2.564 7.764 2.316 7.924C2.068 8.076 1.86 8.28 1.692 8.536L0.912 7.9C1.088 7.564 1.384 7.276 1.8 7.036C2.216 6.788 2.752 6.664 3.408 6.664C4.192 6.664 4.808 6.852 5.256 7.228C5.704 7.604 5.928 8.148 5.928 8.86V11.968H6.708V13H5.904ZM3.168 12.184C3.592 12.184 3.94 12.088 4.212 11.896C4.484 11.704 4.62 11.456 4.62 11.152V10.252H3.456C2.512 10.252 2.04 10.536 2.04 11.104V11.344C2.04 11.624 2.14 11.836 2.34 11.98C2.54 12.116 2.816 12.184 3.168 12.184ZM12.1393 11.944H12.0673C11.8833 12.32 11.6393 12.616 11.3353 12.832C11.0313 13.04 10.6513 13.144 10.1953 13.144C9.46731 13.144 8.88731 12.872 8.45531 12.328C8.02331 11.784 7.80731 10.976 7.80731 9.904C7.80731 8.832 8.02331 8.024 8.45531 7.48C8.88731 6.936 9.46731 6.664 10.1953 6.664C10.6513 6.664 11.0313 6.772 11.3353 6.988C11.6393 7.196 11.8833 7.488 12.0673 7.864H12.1393V4.12H13.4473V13H12.1393V11.944ZM10.7353 12.076C10.9273 12.076 11.1073 12.052 11.2753 12.004C11.4433 11.956 11.5913 11.884 11.7193 11.788C11.8473 11.692 11.9473 11.576 12.0193 11.44C12.0993 11.296 12.1393 11.128 12.1393 10.936V8.872C12.1393 8.68 12.0993 8.516 12.0193 8.38C11.9473 8.236 11.8473 8.116 11.7193 8.02C11.5913 7.924 11.4433 7.852 11.2753 7.804C11.1073 7.756 10.9273 7.732 10.7353 7.732C10.2393 7.732 9.85531 7.884 9.58331 8.188C9.31931 8.492 9.18731 8.896 9.18731 9.4V10.408C9.18731 10.912 9.31931 11.316 9.58331 11.62C9.85531 11.924 10.2393 12.076 10.7353 12.076ZM18.3746 5.68C18.0386 5.68 17.8026 5.612 17.6666 5.476C17.5386 5.34 17.4746 5.172 17.4746 4.972V4.72C17.4746 4.52 17.5386 4.352 17.6666 4.216C17.8026 4.08 18.0346 4.012 18.3626 4.012C18.6986 4.012 18.9306 4.08 19.0586 4.216C19.1946 4.352 19.2626 4.52 19.2626 4.72V4.972C19.2626 5.172 19.1946 5.34 19.0586 5.476C18.9306 5.612 18.7026 5.68 18.3746 5.68ZM15.6026 11.944H17.7146V7.864H15.6026V6.808H19.0226V11.944H21.0026V13H15.6026V11.944ZM25.5579 13C25.0139 13 24.6139 12.856 24.3579 12.568C24.1019 12.272 23.9739 11.892 23.9739 11.428V7.864H22.0659V6.808H23.4219C23.6539 6.808 23.8179 6.764 23.9139 6.676C24.0099 6.58 24.0579 6.412 24.0579 6.172V4.624H25.2819V6.808H27.9219V7.864H25.2819V11.944H27.9219V13H25.5579ZM29.7893 4.12H31.0973V7.864H31.1573C31.2213 7.704 31.3013 7.552 31.3973 7.408C31.5013 7.256 31.6253 7.128 31.7693 7.024C31.9133 6.912 32.0813 6.824 32.2733 6.76C32.4653 6.696 32.6893 6.664 32.9453 6.664C33.5693 6.664 34.0733 6.868 34.4573 7.276C34.8413 7.684 35.0333 8.264 35.0333 9.016V13H33.7253V9.208C33.7253 8.224 33.2973 7.732 32.4413 7.732C32.2733 7.732 32.1093 7.756 31.9492 7.804C31.7893 7.844 31.6453 7.908 31.5173 7.996C31.3893 8.084 31.2853 8.196 31.2053 8.332C31.1333 8.468 31.0973 8.624 31.0973 8.8V13H29.7893V4.12ZM41.3886 6.808H42.7086L39.7086 14.2C39.5486 14.6 39.3366 14.9 39.0726 15.1C38.8166 15.3 38.4446 15.4 37.9566 15.4H36.9126V14.344H38.3766L38.9406 12.916L36.4446 6.808H37.8126L38.7966 9.4L39.5646 11.524H39.6366L40.4046 9.4L41.3886 6.808ZM65.6698 11.944H67.3138V7.864H65.6698V6.808H68.6218V8.452H68.6938C68.7498 8.236 68.8298 8.028 68.9338 7.828C69.0378 7.628 69.1698 7.456 69.3298 7.312C69.4898 7.16 69.6858 7.04 69.9178 6.952C70.1498 6.856 70.4218 6.808 70.7338 6.808H71.4778V8.056H70.2538C69.7738 8.056 69.3818 8.2 69.0778 8.488C68.7738 8.768 68.6218 9.148 68.6218 9.628V11.944H70.8658V13H65.6698V11.944ZM75.9371 5.68C75.6011 5.68 75.3651 5.612 75.2291 5.476C75.1011 5.34 75.0371 5.172 75.0371 4.972V4.72C75.0371 4.52 75.1011 4.352 75.2291 4.216C75.3651 4.08 75.5971 4.012 75.9251 4.012C76.2611 4.012 76.4931 4.08 76.6211 4.216C76.7571 4.352 76.8251 4.52 76.8251 4.72V4.972C76.8251 5.172 76.7571 5.34 76.6211 5.476C76.4931 5.612 76.2651 5.68 75.9371 5.68ZM73.1651 11.944H75.2771V7.864H73.1651V6.808H76.5851V11.944H78.5651V13H73.1651V11.944ZM82.7604 13.144C82.0884 13.144 81.5084 13.036 81.0204 12.82C80.5404 12.604 80.1524 12.316 79.8564 11.956L80.6604 11.236C80.9324 11.532 81.2364 11.76 81.5724 11.92C81.9164 12.072 82.3204 12.148 82.7844 12.148C83.2084 12.148 83.5484 12.076 83.8044 11.932C84.0684 11.788 84.2004 11.564 84.2004 11.26C84.2004 11.132 84.1764 11.024 84.1284 10.936C84.0804 10.848 84.0124 10.776 83.9244 10.72C83.8364 10.664 83.7324 10.62 83.6124 10.588C83.5004 10.556 83.3804 10.532 83.2524 10.516L82.2684 10.36C82.0284 10.328 81.7844 10.276 81.5364 10.204C81.2884 10.132 81.0644 10.032 80.8644 9.904C80.6724 9.768 80.5124 9.596 80.3844 9.388C80.2644 9.18 80.2044 8.916 80.2044 8.596C80.2044 7.964 80.4444 7.484 80.9244 7.156C81.4124 6.828 82.0524 6.664 82.8444 6.664C83.4204 6.664 83.9164 6.752 84.3324 6.928C84.7564 7.096 85.1084 7.332 85.3884 7.636L84.6564 8.404C84.4964 8.22 84.2684 8.052 83.9724 7.9C83.6764 7.74 83.2844 7.66 82.7964 7.66C81.9244 7.66 81.4884 7.936 81.4884 8.488C81.4884 8.752 81.5804 8.936 81.7644 9.04C81.9564 9.136 82.1804 9.2 82.4364 9.232L83.4204 9.388C83.6684 9.428 83.9124 9.48 84.1524 9.544C84.4004 9.608 84.6204 9.708 84.8124 9.844C85.0124 9.972 85.1724 10.14 85.2924 10.348C85.4204 10.556 85.4844 10.82 85.4844 11.14C85.4844 11.764 85.2404 12.256 84.7524 12.616C84.2724 12.968 83.6084 13.144 82.7604 13.144ZM87.3518 4.12H88.6598V7.864H88.7198C88.7838 7.704 88.8638 7.552 88.9598 7.408C89.0638 7.256 89.1878 7.128 89.3318 7.024C89.4758 6.912 89.6438 6.824 89.8358 6.76C90.0278 6.696 90.2518 6.664 90.5078 6.664C91.1318 6.664 91.6358 6.868 92.0198 7.276C92.4038 7.684 92.5958 8.264 92.5958 9.016V13H91.2878V9.208C91.2878 8.224 90.8598 7.732 90.0038 7.732C89.8358 7.732 89.6718 7.756 89.5117 7.804C89.3518 7.844 89.2078 7.908 89.0798 7.996C88.9518 8.084 88.8478 8.196 88.7678 8.332C88.6958 8.468 88.6598 8.624 88.6598 8.8V13H87.3518V4.12ZM94.5471 13V6.808H95.8551V7.864H95.9151C95.9791 7.704 96.0591 7.552 96.1551 7.408C96.2591 7.256 96.3831 7.128 96.5271 7.024C96.6711 6.912 96.8391 6.824 97.0311 6.76C97.2231 6.696 97.4471 6.664 97.7031 6.664C98.3271 6.664 98.8311 6.868 99.2151 7.276C99.5991 7.684 99.7911 8.264 99.7911 9.016V13H98.4831V9.208C98.4831 8.224 98.0551 7.732 97.1991 7.732C97.0311 7.732 96.8671 7.756 96.7071 7.804C96.5471 7.844 96.4031 7.908 96.2751 7.996C96.1471 8.084 96.0431 8.196 95.9631 8.332C95.8911 8.468 95.8551 8.624 95.8551 8.8V13H94.5471ZM106.638 13C106.262 13 105.978 12.904 105.786 12.712C105.602 12.52 105.49 12.268 105.45 11.956H105.39C105.27 12.332 105.05 12.624 104.73 12.832C104.418 13.04 104.018 13.144 103.53 13.144C102.898 13.144 102.394 12.98 102.018 12.652C101.642 12.316 101.454 11.856 101.454 11.272C101.454 10.672 101.674 10.216 102.114 9.904C102.562 9.584 103.246 9.424 104.166 9.424H105.354V8.944C105.354 8.104 104.91 7.684 104.022 7.684C103.622 7.684 103.298 7.764 103.05 7.924C102.802 8.076 102.594 8.28 102.426 8.536L101.646 7.9C101.822 7.564 102.118 7.276 102.534 7.036C102.95 6.788 103.486 6.664 104.142 6.664C104.926 6.664 105.542 6.852 105.99 7.228C106.438 7.604 106.662 8.148 106.662 8.86V11.968H107.442V13H106.638ZM103.902 12.184C104.326 12.184 104.674 12.088 104.946 11.896C105.218 11.704 105.354 11.456 105.354 11.152V10.252H104.19C103.246 10.252 102.774 10.536 102.774 11.104V11.344C102.774 11.624 102.874 11.836 103.074 11.98C103.274 12.116 103.55 12.184 103.902 12.184ZM108.938 13V6.808H110.246V7.864H110.306C110.37 7.704 110.45 7.552 110.546 7.408C110.65 7.256 110.774 7.128 110.918 7.024C111.062 6.912 111.23 6.824 111.422 6.76C111.614 6.696 111.838 6.664 112.094 6.664C112.718 6.664 113.222 6.868 113.606 7.276C113.99 7.684 114.182 8.264 114.182 9.016V13H112.874V9.208C112.874 8.224 112.446 7.732 111.59 7.732C111.422 7.732 111.258 7.756 111.098 7.804C110.938 7.844 110.794 7.908 110.666 7.996C110.538 8.084 110.434 8.196 110.354 8.332C110.282 8.468 110.246 8.624 110.246 8.8V13H108.938Z" fill="white"/>
<path d="M49.0759 13C48.6999 13 48.4159 12.904 48.2239 12.712C48.0399 12.52 47.9279 12.268 47.8879 11.956H47.8279C47.7079 12.332 47.4879 12.624 47.1679 12.832C46.8559 13.04 46.4559 13.144 45.9679 13.144C45.3359 13.144 44.8319 12.98 44.4559 12.652C44.0799 12.316 43.8919 11.856 43.8919 11.272C43.8919 10.672 44.1119 10.216 44.5519 9.904C44.9999 9.584 45.6839 9.424 46.6039 9.424H47.7919V8.944C47.7919 8.104 47.3479 7.684 46.4599 7.684C46.0599 7.684 45.7359 7.764 45.4879 7.924C45.2399 8.076 45.0319 8.28 44.8639 8.536L44.0839 7.9C44.2599 7.564 44.5559 7.276 44.9719 7.036C45.3879 6.788 45.9239 6.664 46.5799 6.664C47.3639 6.664 47.9799 6.852 48.4279 7.228C48.8759 7.604 49.0999 8.148 49.0999 8.86V11.968H49.8799V13H49.0759ZM46.3399 12.184C46.7639 12.184 47.1119 12.088 47.3839 11.896C47.6559 11.704 47.7919 11.456 47.7919 11.152V10.252H46.6279C45.6839 10.252 45.2119 10.536 45.2119 11.104V11.344C45.2119 11.624 45.3119 11.836 45.5119 11.98C45.7119 12.116 45.9879 12.184 46.3399 12.184ZM51.0872 15.148V14.02H56.8472V15.148H51.0872ZM58.6185 4.12H59.9265V9.484H59.9865L60.9585 8.488L62.6985 6.808H64.2465L61.7385 9.244L64.5225 13H62.9505L60.7905 9.988L59.9265 10.792V13H58.6185V4.12Z" fill="black"/>
</svg>
