<svg width="115" height="16" viewBox="0 0 115 16" fill="none" xmlns="http://www.w3.org/2000/svg">
<rect width="21" height="16" fill="#FFD848"/>
<rect x="57" width="37" height="16" fill="#FFD848"/>
<path d="M5.88 13C5.504 13 5.212 12.908 5.004 12.724C4.804 12.532 4.684 12.268 4.644 11.932H4.584C4.472 12.316 4.252 12.616 3.924 12.832C3.596 13.04 3.192 13.144 2.712 13.144C2.088 13.144 1.592 12.98 1.224 12.652C0.856 12.324 0.672 11.868 0.672 11.284C0.672 10.036 1.588 9.412 3.42 9.412H4.512V9.004C4.512 8.612 4.416 8.316 4.224 8.116C4.032 7.916 3.72 7.816 3.288 7.816C2.896 7.816 2.58 7.892 2.34 8.044C2.1 8.196 1.896 8.392 1.728 8.632L0.852 7.888C1.044 7.544 1.352 7.256 1.776 7.024C2.208 6.784 2.764 6.664 3.444 6.664C4.26 6.664 4.896 6.856 5.352 7.24C5.816 7.616 6.048 8.18 6.048 8.932V11.848H6.78V13H5.88ZM3.228 12.088C3.596 12.088 3.9 12.004 4.14 11.836C4.388 11.66 4.512 11.424 4.512 11.128V10.3H3.456C2.616 10.3 2.196 10.564 2.196 11.092V11.332C2.196 11.58 2.288 11.768 2.472 11.896C2.656 12.024 2.908 12.088 3.228 12.088ZM12.0313 11.908H11.9473C11.7793 12.284 11.5473 12.584 11.2513 12.808C10.9633 13.032 10.5793 13.144 10.0993 13.144C9.74731 13.144 9.42331 13.08 9.12731 12.952C8.83931 12.816 8.59131 12.616 8.38331 12.352C8.17531 12.08 8.01531 11.74 7.90331 11.332C7.79131 10.924 7.73531 10.448 7.73531 9.904C7.73531 8.816 7.95131 8.004 8.38331 7.468C8.81531 6.932 9.38731 6.664 10.0993 6.664C10.5793 6.664 10.9633 6.776 11.2513 7C11.5473 7.224 11.7793 7.524 11.9473 7.9H12.0313V4.12H13.5673V13H12.0313V11.908ZM10.7473 11.92C10.9233 11.92 11.0873 11.9 11.2393 11.86C11.3993 11.812 11.5353 11.748 11.6473 11.668C11.7673 11.58 11.8593 11.472 11.9233 11.344C11.9953 11.208 12.0313 11.052 12.0313 10.876V8.932C12.0313 8.756 11.9953 8.604 11.9233 8.476C11.8593 8.34 11.7673 8.232 11.6473 8.152C11.5353 8.064 11.3993 8 11.2393 7.96C11.0873 7.912 10.9233 7.888 10.7473 7.888C10.2993 7.888 9.95131 8.024 9.70331 8.296C9.46331 8.568 9.34331 8.94 9.34331 9.412V10.396C9.34331 10.868 9.46331 11.24 9.70331 11.512C9.95131 11.784 10.2993 11.92 10.7473 11.92ZM18.3746 5.848C18.0146 5.848 17.7586 5.772 17.6066 5.62C17.4626 5.468 17.3906 5.284 17.3906 5.068V4.78C17.3906 4.564 17.4626 4.38 17.6066 4.228C17.7586 4.076 18.0146 4 18.3746 4C18.7346 4 18.9866 4.076 19.1306 4.228C19.2826 4.38 19.3586 4.564 19.3586 4.78V5.068C19.3586 5.284 19.2826 5.468 19.1306 5.62C18.9866 5.772 18.7346 5.848 18.3746 5.848ZM15.5666 11.788H17.6066V8.02H15.5666V6.808H19.1426V11.788H21.0386V13H15.5666V11.788ZM25.6059 13C25.0139 13 24.5779 12.844 24.2979 12.532C24.0179 12.22 23.8779 11.816 23.8779 11.32V8.02H22.0779V6.808H23.3019C23.5499 6.808 23.7259 6.76 23.8299 6.664C23.9339 6.56 23.9859 6.38 23.9859 6.124V4.624H25.4139V6.808H27.9339V8.02H25.4139V11.788H27.9339V13H25.6059ZM29.6813 4.12H31.2173V7.9H31.2773C31.4133 7.564 31.6213 7.276 31.9013 7.036C32.1893 6.788 32.5853 6.664 33.0893 6.664C33.6973 6.664 34.1893 6.868 34.5653 7.276C34.9493 7.676 35.1413 8.252 35.1413 9.004V13H33.6053V9.22C33.6053 8.324 33.2173 7.876 32.4413 7.876C32.2813 7.876 32.1293 7.896 31.9853 7.936C31.8413 7.976 31.7093 8.04 31.5893 8.128C31.4773 8.208 31.3853 8.308 31.3133 8.428C31.2493 8.548 31.2173 8.692 31.2173 8.86V13H29.6813V4.12ZM41.2686 6.808H42.8286L39.8646 14.104C39.6966 14.528 39.4726 14.848 39.1926 15.064C38.9126 15.288 38.5166 15.4 38.0046 15.4H36.8766V14.188H38.3526L38.8206 12.94L36.3246 6.808H37.9566L38.9046 9.4L39.5646 11.368H39.6486L40.3086 9.4L41.2686 6.808ZM49.0519 13C48.6759 13 48.3839 12.908 48.1759 12.724C47.9759 12.532 47.8559 12.268 47.8159 11.932H47.7559C47.6439 12.316 47.4239 12.616 47.0959 12.832C46.7679 13.04 46.3639 13.144 45.8839 13.144C45.2599 13.144 44.7639 12.98 44.3959 12.652C44.0279 12.324 43.8439 11.868 43.8439 11.284C43.8439 10.036 44.7599 9.412 46.5919 9.412H47.6839V9.004C47.6839 8.612 47.5879 8.316 47.3959 8.116C47.2039 7.916 46.8919 7.816 46.4599 7.816C46.0679 7.816 45.7519 7.892 45.5119 8.044C45.2719 8.196 45.0679 8.392 44.8999 8.632L44.0239 7.888C44.2159 7.544 44.5239 7.256 44.9479 7.024C45.3799 6.784 45.9359 6.664 46.6159 6.664C47.4319 6.664 48.0679 6.856 48.5239 7.24C48.9879 7.616 49.2199 8.18 49.2199 8.932V11.848H49.9519V13H49.0519ZM46.3999 12.088C46.7679 12.088 47.0719 12.004 47.3119 11.836C47.5599 11.66 47.6839 11.424 47.6839 11.128V10.3H46.6279C45.7879 10.3 45.3679 10.564 45.3679 11.092V11.332C45.3679 11.58 45.4599 11.768 45.6439 11.896C45.8279 12.024 46.0799 12.088 46.3999 12.088ZM58.4865 4.12H60.0225V9.328H60.0945L60.9945 8.344L62.5185 6.808H64.3065L61.8465 9.244L64.5705 13H62.7345L60.7545 10.12L60.0225 10.816V13H58.4865V4.12ZM65.6578 11.788H67.1938V8.02H65.6578V6.808H68.7298V8.5H68.8258C68.8818 8.284 68.9578 8.076 69.0538 7.876C69.1578 7.668 69.2858 7.488 69.4378 7.336C69.5978 7.176 69.7898 7.048 70.0138 6.952C70.2378 6.856 70.5058 6.808 70.8178 6.808H71.4898V8.248H70.2178C69.7538 8.248 69.3898 8.384 69.1258 8.656C68.8618 8.928 68.7298 9.276 68.7298 9.7V11.788H70.8778V13H65.6578V11.788ZM75.9371 5.848C75.5771 5.848 75.3211 5.772 75.1691 5.62C75.0251 5.468 74.9531 5.284 74.9531 5.068V4.78C74.9531 4.564 75.0251 4.38 75.1691 4.228C75.3211 4.076 75.5771 4 75.9371 4C76.2971 4 76.5491 4.076 76.6931 4.228C76.8451 4.38 76.9211 4.564 76.9211 4.78V5.068C76.9211 5.284 76.8451 5.468 76.6931 5.62C76.5491 5.772 76.2971 5.848 75.9371 5.848ZM73.1291 11.788H75.1691V8.02H73.1291V6.808H76.7051V11.788H78.6011V13H73.1291V11.788ZM82.7244 13.144C82.0444 13.144 81.4564 13.04 80.9604 12.832C80.4644 12.616 80.0764 12.328 79.7964 11.968L80.6964 11.152C80.9524 11.432 81.2444 11.648 81.5724 11.8C81.9084 11.952 82.2964 12.028 82.7364 12.028C83.1204 12.028 83.4284 11.964 83.6604 11.836C83.8924 11.708 84.0084 11.512 84.0084 11.248C84.0084 11.024 83.9284 10.872 83.7684 10.792C83.6164 10.712 83.4124 10.652 83.1564 10.612L82.1604 10.456C81.9044 10.416 81.6524 10.36 81.4044 10.288C81.1644 10.208 80.9484 10.1 80.7564 9.964C80.5724 9.828 80.4244 9.656 80.3124 9.448C80.2004 9.232 80.1444 8.972 80.1444 8.668C80.1444 8.02 80.3844 7.524 80.8644 7.18C81.3524 6.836 82.0204 6.664 82.8684 6.664C83.4684 6.664 83.9764 6.748 84.3924 6.916C84.8164 7.084 85.1644 7.32 85.4364 7.624L84.6324 8.512C84.4564 8.32 84.2204 8.152 83.9244 8.008C83.6364 7.856 83.2684 7.78 82.8204 7.78C82.0364 7.78 81.6444 8.024 81.6444 8.512C81.6444 8.736 81.7244 8.892 81.8844 8.98C82.0444 9.06 82.2524 9.12 82.5084 9.16L83.4924 9.316C83.7564 9.356 84.0084 9.416 84.2484 9.496C84.4964 9.568 84.7124 9.672 84.8964 9.808C85.0884 9.944 85.2404 10.116 85.3524 10.324C85.4644 10.532 85.5204 10.788 85.5204 11.092C85.5204 11.732 85.2724 12.236 84.7764 12.604C84.2884 12.964 83.6044 13.144 82.7244 13.144ZM87.2438 4.12H88.7798V7.9H88.8398C88.9758 7.564 89.1838 7.276 89.4638 7.036C89.7518 6.788 90.1478 6.664 90.6518 6.664C91.2598 6.664 91.7518 6.868 92.1278 7.276C92.5118 7.676 92.7038 8.252 92.7038 9.004V13H91.1678V9.22C91.1678 8.324 90.7798 7.876 90.0038 7.876C89.8438 7.876 89.6918 7.896 89.5478 7.936C89.4038 7.976 89.2718 8.04 89.1518 8.128C89.0398 8.208 88.9478 8.308 88.8758 8.428C88.8118 8.548 88.7798 8.692 88.7798 8.86V13H87.2438V4.12ZM94.4391 13V6.808H95.9751V7.9H96.0351C96.1711 7.564 96.3791 7.276 96.6591 7.036C96.9471 6.788 97.3431 6.664 97.8471 6.664C98.4551 6.664 98.9471 6.868 99.3231 7.276C99.7071 7.676 99.8991 8.252 99.8991 9.004V13H98.3631V9.22C98.3631 8.324 97.9751 7.876 97.1991 7.876C97.0391 7.876 96.8871 7.896 96.7431 7.936C96.5991 7.976 96.4671 8.04 96.3471 8.128C96.2351 8.208 96.1431 8.308 96.0711 8.428C96.0071 8.548 95.9751 8.692 95.9751 8.86V13H94.4391ZM106.614 13C106.238 13 105.946 12.908 105.738 12.724C105.538 12.532 105.418 12.268 105.378 11.932H105.318C105.206 12.316 104.986 12.616 104.658 12.832C104.33 13.04 103.926 13.144 103.446 13.144C102.822 13.144 102.326 12.98 101.958 12.652C101.59 12.324 101.406 11.868 101.406 11.284C101.406 10.036 102.322 9.412 104.154 9.412H105.246V9.004C105.246 8.612 105.15 8.316 104.958 8.116C104.766 7.916 104.454 7.816 104.022 7.816C103.63 7.816 103.314 7.892 103.074 8.044C102.834 8.196 102.63 8.392 102.462 8.632L101.586 7.888C101.778 7.544 102.086 7.256 102.51 7.024C102.942 6.784 103.498 6.664 104.178 6.664C104.994 6.664 105.63 6.856 106.086 7.24C106.55 7.616 106.782 8.18 106.782 8.932V11.848H107.514V13H106.614ZM103.962 12.088C104.33 12.088 104.634 12.004 104.874 11.836C105.122 11.66 105.246 11.424 105.246 11.128V10.3H104.19C103.35 10.3 102.93 10.564 102.93 11.092V11.332C102.93 11.58 103.022 11.768 103.206 11.896C103.39 12.024 103.642 12.088 103.962 12.088ZM108.83 13V6.808H110.366V7.9H110.426C110.562 7.564 110.77 7.276 111.05 7.036C111.338 6.788 111.734 6.664 112.238 6.664C112.846 6.664 113.338 6.868 113.714 7.276C114.098 7.676 114.29 8.252 114.29 9.004V13H112.754V9.22C112.754 8.324 112.366 7.876 111.59 7.876C111.43 7.876 111.278 7.896 111.134 7.936C110.99 7.976 110.858 8.04 110.738 8.128C110.626 8.208 110.534 8.308 110.462 8.428C110.398 8.548 110.366 8.692 110.366 8.86V13H108.83Z" fill="black"/>
</svg>
